<?xml version="1.0" encoding="utf-8"?>
<!-- Generator: Adobe Illustrator 23.1.0, SVG Export Plug-In . SVG Version: 6.00 Build 0)  -->
<svg version="1.1" id="Capa_1" xmlns="http://www.w3.org/2000/svg" xmlns:xlink="http://www.w3.org/1999/xlink" x="0px" y="0px"
	 viewBox="0 0 512 512" style="enable-background:new 0 0 512 512;" xml:space="preserve">
<style type="text/css">
	.st0{fill:#FFFFFF;}
</style>
<path d="M0,0v512h512V0H0z M482,482H30V30h452V482z"/>
<rect x="60" y="60" width="392" height="392"/>
<g>
	<polygon class="st0" points="339.3,155.5 312.6,143.4 260,215 277.8,239.2 	"/>
	<polygon class="st0" points="278.1,273.2 260.3,297.4 312.6,368.6 339.3,356.5 	"/>
	<polygon class="st0" points="265.7,256.4 265.4,256 265.4,256 265.4,256 265.4,256 247.6,231.8 247.6,231.8 182.6,143.4 156,155.5 
		229.8,256 229.8,256 229.8,256 156,356.5 182.6,368.6 247.6,280.2 247.9,280.6 	"/>
</g>
</svg>
