<?xml version="1.0" encoding="utf-8"?>
<!-- Generator: Adobe Illustrator 23.1.0, SVG Export Plug-In . SVG Version: 6.00 Build 0)  -->
<svg version="1.1" id="Capa_1" xmlns="http://www.w3.org/2000/svg" xmlns:xlink="http://www.w3.org/1999/xlink" x="0px" y="0px"
	 viewBox="0 0 512 512" style="enable-background:new 0 0 512 512;" xml:space="preserve">
<style type="text/css">
	.st0{fill:#FFFFFF;}
</style>
<path d="M0,0v512h512V0H0z M482,482H30V30h452V482z"/>
<rect x="60" y="60" width="392" height="392"/>
<g>
	<path class="st0" d="M114.8,287.8l22.2-1.9c1.1,8.9,3.5,16.2,7.3,21.9c3.8,5.7,9.8,10.3,17.9,13.8c8.1,3.5,17.2,5.3,27.3,5.3
		c9,0,16.9-1.3,23.8-4c6.9-2.7,12-6.3,15.3-11c3.4-4.7,5-9.7,5-15.2c0-5.6-1.6-10.5-4.9-14.6c-3.2-4.2-8.6-7.7-16-10.5
		c-4.8-1.9-15.3-4.8-31.7-8.7c-16.3-3.9-27.8-7.6-34.3-11.1c-8.5-4.4-14.8-10-19-16.6c-4.2-6.6-6.2-14-6.2-22.1
		c0-9,2.5-17.4,7.6-25.2c5.1-7.8,12.5-13.7,22.3-17.8c9.8-4,20.7-6.1,32.6-6.1c13.2,0,24.8,2.1,34.9,6.4
		c10.1,4.2,17.8,10.5,23.2,18.7c5.4,8.3,8.3,17.6,8.7,28l-22.6,1.7c-1.2-11.2-5.3-19.7-12.3-25.5c-7-5.7-17.3-8.6-31-8.6
		c-14.2,0-24.6,2.6-31.1,7.8c-6.5,5.2-9.8,11.5-9.8,18.9c0,6.4,2.3,11.6,6.9,15.8c4.5,4.1,16.4,8.4,35.5,12.7
		c19.1,4.3,32.3,8.1,39.4,11.3c10.4,4.8,18,10.8,22.9,18.1c4.9,7.3,7.4,15.8,7.4,25.3c0,9.5-2.7,18.4-8.1,26.8
		c-5.4,8.4-13.2,14.9-23.4,19.5c-10.2,4.7-21.6,7-34.3,7c-16.1,0-29.6-2.3-40.5-7c-10.9-4.7-19.4-11.7-25.6-21.2
		C118.3,310.3,115.1,299.7,114.8,287.8z"/>
	<path class="st0" d="M373.9,303.4l22.6,2.8c-3.6,13.2-10.2,23.4-19.8,30.7c-9.6,7.3-21.9,10.9-36.9,10.9
		c-18.8,0-33.8-5.8-44.8-17.4c-11-11.6-16.6-27.9-16.6-48.8c0-21.7,5.6-38.5,16.7-50.5c11.2-12,25.6-18,43.4-18
		c17.2,0,31.3,5.9,42.2,17.6c10.9,11.7,16.4,28.2,16.4,49.5c0,1.3,0,3.2-0.1,5.8H301c0.8,14.2,4.8,25,12,32.5
		c7.2,7.5,16.2,11.3,26.9,11.3c8,0,14.8-2.1,20.5-6.3C366.1,319.4,370.6,312.7,373.9,303.4z M302.2,268.1h72
		c-1-10.8-3.7-19-8.3-24.4c-7-8.4-16-12.6-27.1-12.6c-10,0-18.5,3.4-25.3,10.1C306.7,247.9,303,256.9,302.2,268.1z"/>
</g>
</svg>
